<svg width="86" height="43" viewBox="0 0 86 43" fill="none" xmlns="http://www.w3.org/2000/svg">
<g id="BDIC logo 1" clip-path="url(#clip0_330_1524)">
<path id="Vector" d="M52.1104 42.1019C46.122 42.1017 40.1337 42.1 34.1453 42.1048C33.6446 42.1053 33.1558 42.0518 32.6664 41.9516C32.4512 41.9076 32.2221 41.9281 31.9991 41.9246C31.67 41.9195 31.344 41.9004 31.0378 41.7622C31.0326 41.7598 31.0263 41.7574 31.0209 41.7578C30.5637 41.791 30.1445 41.583 29.6974 41.5488C29.5784 41.5397 29.4617 41.497 29.3442 41.4682C29.2155 41.4367 29.0874 41.4029 28.9587 41.3716C28.9362 41.3662 28.9104 41.3725 28.8888 41.3653C28.6012 41.269 28.314 41.1713 28.0269 41.0736C27.9779 41.0569 27.9297 41.0378 27.8807 41.0215C27.7508 40.9785 27.62 40.9386 27.4908 40.894C27.2689 40.8173 27.0479 40.7377 26.8263 40.6599C26.8101 40.6542 26.7896 40.6588 26.7745 40.6515C26.5 40.5215 26.2248 40.393 25.9523 40.2588C25.7192 40.1441 25.4829 40.0336 25.2597 39.9014C24.9268 39.7042 24.5895 39.509 24.2804 39.2777C23.743 38.8756 23.2061 38.4687 22.7065 38.0221C22.3145 37.6716 21.9616 37.2724 21.6233 36.8682C21.2983 36.4798 21.002 36.0653 20.7165 35.6463C20.5432 35.3921 20.413 35.1083 20.266 34.8363C20.0982 34.5259 19.9218 34.2193 19.7712 33.9007C19.6553 33.6557 19.5752 33.3939 19.4753 33.1411C19.4478 33.0715 19.4031 33.0089 19.3731 32.94C19.3459 32.877 19.3236 32.8108 19.3075 32.7442C19.2967 32.6992 19.3195 32.6306 19.2948 32.607C19.0513 32.3761 19.2016 31.9976 18.9737 31.7636C18.9662 31.7558 18.9596 31.7418 18.9607 31.7316C19.005 31.3261 18.7159 30.9988 18.7 30.6036C18.6911 30.3834 18.7601 30.2744 19.0035 30.2751C21.3049 30.2823 23.6064 30.2789 25.9077 30.2785C26.2263 30.2784 26.3461 30.3921 26.4609 30.6986C26.5555 30.9508 26.6923 31.1891 26.8282 31.4232C26.9585 31.6478 27.1056 31.8633 27.2567 32.0747C27.3828 32.2513 27.5096 32.4324 27.6637 32.5832C27.9725 32.8854 28.2828 33.1912 28.6252 33.4526C28.9539 33.7035 29.3197 33.9074 29.6774 34.1181C29.8857 34.2407 30.1028 34.3561 30.3292 34.4386C30.5997 34.5371 30.8841 34.5971 31.1626 34.6735C31.2348 34.6933 31.3152 34.6981 31.3783 34.7338C31.5534 34.833 31.739 34.8502 31.9356 34.8576C32.1139 34.8642 32.2907 34.9123 32.4681 34.9434C32.6105 34.9683 32.7518 35.0093 32.8951 35.018C33.141 35.033 33.388 35.0285 33.6345 35.032C34.8774 35.0498 36.1204 35.084 37.3633 35.0827C46.9901 35.073 56.6167 35.055 66.2436 35.0451C66.8466 35.0445 67.4496 35.1078 68.0527 35.1085C68.6436 35.1091 69.2343 35.0627 69.8255 35.0464C70.3184 35.0327 70.8118 35.0248 71.3047 35.0296C71.5668 35.0321 71.816 34.9945 72.0612 34.9061C72.1419 34.8769 72.2308 34.8575 72.3161 34.8564C72.5334 34.854 72.7445 34.8488 72.9464 34.7424C73.0399 34.6931 73.1605 34.697 73.2669 34.6694C73.3833 34.6392 73.4996 34.6062 73.6122 34.5646C73.8339 34.4827 74.053 34.3937 74.2733 34.3082C74.3654 34.2725 74.4651 34.2502 74.5492 34.2009C74.8578 34.0197 75.1572 33.8225 75.4677 33.6448C76.0133 33.3325 76.4402 32.8826 76.8548 32.4271C77.0971 32.1609 77.2811 31.8394 77.476 31.5329C77.6154 31.3136 77.7604 31.089 77.8453 30.8466C77.9312 30.6013 78.0623 30.3782 78.1233 30.1141C78.1923 29.8153 78.205 29.49 78.3135 29.222C78.5515 28.6343 78.4455 28.0426 78.4663 27.4521C78.4706 27.3294 78.4116 27.205 78.3854 27.0806C78.3475 26.8997 78.314 26.7179 78.2764 26.5369C78.2519 26.4187 78.2258 26.3006 78.1963 26.1833C78.1639 26.0553 78.1298 25.9274 78.0909 25.8012C78.0697 25.7321 78.0373 25.6663 78.0089 25.5994C77.9778 25.5263 77.9466 25.4531 77.9135 25.3808C77.8221 25.1814 77.7489 24.9704 77.6334 24.7859C77.4245 24.4527 77.1772 24.1434 76.9697 23.8093C76.7223 23.4111 76.3535 23.1386 76.0159 22.8333C75.851 22.6843 75.6816 22.5336 75.4931 22.4183C75.1098 22.1838 74.7163 21.9649 74.3186 21.755C74.0846 21.6316 73.8414 21.5173 73.5902 21.4363C73.295 21.3412 72.9875 21.2843 72.6842 21.2153C72.4584 21.1639 72.2314 21.1171 72.0039 21.0736C71.9066 21.0549 71.8066 21.0401 71.7078 21.0401C70.3458 21.0402 68.9836 21.0285 67.6219 21.0518C66.9912 21.0626 66.3624 21.1662 65.7316 21.1826C65.3443 21.1927 64.955 21.115 64.5661 21.0814C64.3388 21.0617 64.111 21.0447 63.8829 21.0383C63.5482 21.0289 63.4357 20.9317 63.438 20.5979C63.4443 19.6823 63.4688 18.7667 63.4677 17.8511C63.4661 16.5013 63.4528 15.1515 63.4338 13.8018C63.4308 13.5939 63.3664 13.3873 63.3382 13.179C63.3123 12.9878 63.3058 12.7937 63.2736 12.6038C63.252 12.4761 63.2018 12.353 63.1612 12.2288C63.1505 12.1961 63.1135 12.1674 63.1132 12.1365C63.1104 11.8766 63.0591 11.6346 62.9233 11.4053C62.8254 11.2403 62.7804 11.0441 62.685 10.8773C62.4812 10.5204 62.2413 10.1885 61.9969 9.85633C61.7085 9.46428 61.3586 9.14682 61.0072 8.82651C60.8032 8.6405 60.5647 8.49029 60.3335 8.33652C60.0737 8.16366 59.8104 7.99409 59.5371 7.84401C59.3582 7.74562 59.1601 7.68083 58.9683 7.60701C58.699 7.50337 58.4276 7.40528 58.1571 7.30493C58.119 7.2908 58.0819 7.2713 58.0425 7.26405C57.4625 7.15671 56.8886 7.0221 56.2909 7.02347C55.088 7.0261 53.8851 7.00208 52.6821 6.99788C51.3025 6.99293 49.9229 6.99526 48.5432 7.00094C48.3799 7.00158 48.3301 6.94606 48.3314 6.7869C48.3481 4.60321 48.36 2.41928 48.3739 0.235459C48.3753 0.0203831 48.3913 0.00438132 48.6245 0.0042802C51.0374 0.00395157 53.4504 0.00521553 55.8633 0.00541777C56.1158 0.00541777 56.3684 -0.00426418 56.6205 0.00225786C56.9162 0.00984164 57.2079 -0.00795495 57.5037 0.0932631C57.7401 0.174157 58.0119 0.149737 58.2674 0.177317C58.5448 0.207247 58.8216 0.242411 59.0984 0.27717C59.2894 0.301084 59.4809 0.322571 59.6702 0.356066C59.7704 0.373863 59.8668 0.414739 59.9647 0.445706C59.9981 0.456349 60.0301 0.471719 60.0639 0.480162C60.3824 0.559463 60.7029 0.631307 61.0191 0.718823C61.2012 0.76918 61.3799 0.836372 61.5541 0.910212C61.7712 1.00228 61.9809 1.11161 62.196 1.20841C62.3748 1.28887 62.5599 1.35596 62.7368 1.44024C62.8876 1.51196 63.0344 1.59381 63.1766 1.68133C63.5067 1.88483 63.8323 2.09571 64.1612 2.3011C64.4835 2.50238 64.8206 2.68282 65.1275 2.90495C65.4374 3.1292 65.7257 3.38525 66.0102 3.64206C66.5057 4.08928 67.0057 4.53336 67.4757 5.00661C67.801 5.33428 68.0889 5.70106 68.3754 6.06465C68.6028 6.35326 68.8193 6.65345 69.0098 6.96722C69.2064 7.29133 69.3655 7.63818 69.5415 7.97493C69.6417 8.16672 69.7445 8.35717 69.8421 8.55033C69.865 8.59563 69.8674 8.65092 69.8867 8.69855C70.0104 9.00442 70.0457 9.33915 70.207 9.63461C70.2661 9.74288 70.2692 9.88151 70.2994 10.0059C70.335 10.1522 70.3748 10.2975 70.4082 10.4443C70.4378 10.5742 70.4599 10.7057 70.4876 10.8361C70.5199 10.9879 70.5517 11.14 70.5895 11.2904C70.6065 11.358 70.6516 11.4203 70.6599 11.4879C70.7337 12.0826 70.8031 12.6779 70.8712 13.2734C70.8838 13.3836 70.8663 13.5003 70.8946 13.6054C70.9773 13.9137 71.0774 13.9699 71.4053 13.9971C71.6481 14.0173 71.8868 14.0822 72.1292 14.1106C72.3382 14.1351 72.5512 14.1256 72.7601 14.1507C72.9894 14.1784 73.2162 14.2273 73.4438 14.2692C73.541 14.2872 73.637 14.3271 73.7339 14.3283C74.0408 14.3323 74.3404 14.3572 74.6254 14.4876C74.6909 14.5175 74.7771 14.4982 74.8505 14.5155C74.9889 14.5479 75.1249 14.5896 75.2614 14.6295C75.3226 14.6473 75.382 14.6855 75.443 14.6872C75.6449 14.6926 75.8407 14.7046 76.005 14.8456C76.0319 14.8688 76.0827 14.8661 76.1231 14.871C76.1695 14.8767 76.2205 14.8666 76.2629 14.8819C76.5032 14.9687 76.742 15.0596 76.9801 15.152C77.2004 15.2374 77.42 15.3245 77.6382 15.4148C77.7879 15.4766 77.9405 15.5348 78.0819 15.6125C78.7826 15.9982 79.4893 16.3787 80.1205 16.8727C80.6672 17.3006 81.2135 17.7363 81.7088 18.2209C82.2169 18.7183 82.6713 19.2719 83.1326 19.8151C83.3847 20.1121 83.6093 20.4337 83.8325 20.7537C83.9394 20.9068 84.0116 21.0838 84.1044 21.2472C84.1961 21.4085 84.3018 21.5622 84.3871 21.7266C84.5054 21.9546 84.6085 22.1904 84.722 22.421C84.8173 22.6148 84.918 22.8058 85.0168 22.9979C85.022 23.0079 85.0369 23.0136 85.0401 23.0238C85.1131 23.2531 85.186 23.4824 85.2564 23.7124C85.2734 23.7676 85.2771 23.827 85.2949 23.8819C85.3606 24.085 85.4293 24.2871 85.4974 24.4894C85.527 24.5771 85.5636 24.6627 85.5868 24.7519C85.625 24.8978 85.6554 25.0457 85.6881 25.1929C85.718 25.3278 85.747 25.4628 85.7756 25.5978C85.8069 25.7451 85.8522 25.8911 85.8654 26.04C85.9043 26.4767 85.9284 26.9147 85.9617 27.352C86.0053 27.9263 86.0089 28.4958 85.9024 29.0683C85.8462 29.3704 85.8835 29.6891 85.8658 29.9996C85.858 30.1378 85.8205 30.2745 85.7932 30.4112C85.7593 30.5806 85.7287 30.751 85.6845 30.9177C85.6263 31.1371 85.5542 31.3529 85.4915 31.5713C85.4069 31.8661 85.3387 32.1666 85.2385 32.4561C85.1531 32.7029 85.0278 32.9356 84.9285 33.1779C84.847 33.377 84.7835 33.5834 84.7013 33.7822C84.6491 33.9084 84.5811 34.0288 84.513 34.1477C84.4095 34.3284 84.2975 34.5044 84.1933 34.6849C84.0939 34.8575 84.0016 35.0342 83.9028 35.2072C83.8407 35.316 83.7777 35.4249 83.7057 35.5272C83.594 35.6854 83.4747 35.8382 83.3578 35.9928C83.2143 36.1829 83.0805 36.3814 82.9243 36.5605C82.3569 37.2107 81.7904 37.8631 81.1199 38.4124C80.9402 38.5596 80.7411 38.6828 80.5527 38.8196C80.1643 39.1018 79.7851 39.3973 79.3867 39.6647C79.1238 39.8411 78.8333 39.9763 78.5567 40.1328C78.387 40.2287 78.2245 40.3382 78.0508 40.4261C77.8719 40.5167 77.6819 40.5848 77.4996 40.669C77.2889 40.7662 77.082 40.8714 76.8721 40.9702C76.8262 40.9917 76.7738 40.9988 76.7254 41.0153C76.6394 41.0447 76.5538 41.0755 76.4689 41.1077C76.4473 41.1158 76.4301 41.1364 76.4084 41.143C76.1505 41.2203 75.8923 41.2964 75.6339 41.3721C75.5185 41.4059 75.4034 41.4418 75.2865 41.4699C75.1521 41.5022 75.016 41.5277 74.8805 41.5547C74.7382 41.5829 74.5956 41.6092 74.4531 41.6368C74.2946 41.6675 74.1364 41.7006 73.9775 41.7296C73.8007 41.7618 73.6243 41.7978 73.4461 41.8192C73.11 41.8595 72.7733 41.913 72.4361 41.9202C71.9028 41.9317 71.3762 41.9792 70.8485 42.0581C70.5082 42.109 70.1575 42.1004 69.8113 42.1005C63.9111 42.1027 58.0108 42.1021 52.1105 42.1019" fill="#010066"/>
<path id="Vector_2" d="M5.48646 18.4592V18.4609C4.52416 18.4609 3.56185 18.4603 2.59957 18.4615C2.34668 18.4618 2.31212 18.497 2.31149 18.745C2.3099 19.3201 2.30939 19.8951 2.30939 20.4701C2.30927 20.826 2.34519 20.8629 2.70638 20.8631C4.3963 20.8636 6.08621 20.8639 7.77613 20.8615C8.07094 20.8611 8.37818 20.9168 8.63762 20.7086C8.64973 20.6988 8.67142 20.6988 8.68881 20.698C8.91928 20.6882 9.06009 20.5235 9.21715 20.3896C9.38167 20.2493 9.3939 20.0516 9.42907 19.8533C9.48996 19.5105 9.46931 19.1951 9.21998 18.9332C8.9435 18.6429 8.63034 18.4452 8.19723 18.4539C7.29393 18.4717 6.3901 18.4592 5.48646 18.4592ZM5.77348 26.5081V26.509C6.74737 26.509 7.72125 26.5139 8.69503 26.5051C8.90199 26.5033 9.11098 26.4631 9.31478 26.4205C9.59401 26.3624 9.85755 26.2552 10.0991 26.1013C10.4062 25.9056 10.5388 25.5732 10.7258 25.2841C10.7435 25.2568 10.7495 25.2155 10.7463 25.1821C10.7072 24.7635 10.8545 24.3409 10.5891 23.9262C10.2633 23.4169 9.89241 23.0345 9.25497 23.007C9.12614 23.0014 8.99702 22.9995 8.86797 22.9994C6.89682 22.9988 4.92557 22.9992 2.95442 22.9974C2.85593 22.9973 2.75651 22.9856 2.65908 22.9696C2.43915 22.9337 2.31043 23.0343 2.31033 23.2539C2.31023 24.2278 2.31033 25.2015 2.31243 26.1754C2.31306 26.4877 2.33531 26.5078 2.64075 26.5079C3.68499 26.5083 4.72925 26.5081 5.77348 26.5081ZM0.00306749 22.4822C0.003295 20.539 0.00602516 18.5958 8.70327e-06 16.6526C-0.000825512 16.3997 0.0579487 16.3302 0.332557 16.3303C3.07998 16.331 5.82751 16.3294 8.57496 16.3374C8.73052 16.3378 8.88589 16.4159 9.04113 16.4589C9.06894 16.4667 9.09508 16.4881 9.12245 16.4889C9.62731 16.5046 10.0242 16.7906 10.4091 17.0566C10.7201 17.2715 10.9771 17.5714 11.2332 17.8561C11.3422 17.9774 11.3874 18.1559 11.4617 18.3084C11.5151 18.4181 11.5998 18.5231 11.6167 18.6381C11.6679 18.9893 11.7168 19.344 11.721 19.6979C11.7242 19.9932 11.6896 20.2955 11.6212 20.5826C11.5728 20.7858 11.449 20.9738 11.3428 21.1595C11.2332 21.3514 11.2445 21.4786 11.425 21.6101C11.795 21.8795 12.1304 22.1937 12.384 22.5675C12.5966 22.8808 12.8577 23.19 12.8714 23.6046C12.8716 23.6104 12.8722 23.6173 12.8755 23.6216C13.16 24.0117 13.0058 24.4599 13.0342 24.8819C13.0547 25.1877 13.0565 25.4935 12.8915 25.7859C12.7627 26.0143 12.7229 26.2919 12.6011 26.5256C12.4929 26.7334 12.3243 26.9093 12.1861 27.1019C11.9158 27.4786 11.5546 27.7429 11.1505 27.9577C10.9794 28.0485 10.8251 28.189 10.6444 28.239C10.3653 28.3165 10.1286 28.5047 9.80732 28.4875C9.5404 28.4732 9.26824 28.5656 8.99785 28.6073C8.88862 28.6241 8.77802 28.6423 8.66806 28.6424C5.88535 28.6448 3.10263 28.6451 0.319918 28.645C0.0451069 28.645 0.00296637 28.6015 0.00296637 28.3294C0.00276414 26.3804 0.00286526 24.4313 0.00306749 22.4822Z" fill="#1B23D9"/>
<path id="Vector_3" d="M16.889 22.4635H16.8937C16.8937 22.9974 16.8934 23.5314 16.8937 24.0653C16.8939 24.7752 16.8922 25.4853 16.8957 26.1952C16.897 26.4497 16.9487 26.5063 17.1708 26.5063C18.5732 26.5065 19.9754 26.5044 21.3778 26.5013C21.4531 26.5012 21.5291 26.4892 21.6034 26.4751C21.849 26.4282 22.094 26.3782 22.3391 26.3286C22.3957 26.3172 22.4559 26.3117 22.5073 26.2879C22.7172 26.1909 22.928 26.0952 23.1312 25.9853C23.3973 25.8415 23.6706 25.7047 23.915 25.529C24.2642 25.2778 24.5245 24.9355 24.7704 24.5846C24.82 24.5138 24.8917 24.4554 24.9282 24.3792C25.0179 24.1929 25.0947 24.0003 25.1732 23.8088C25.2868 23.532 25.3817 23.2539 25.3696 22.9446C25.3544 22.558 25.3649 22.1702 25.359 21.7831C25.3577 21.6966 25.3497 21.6039 25.3173 21.5253C25.2078 21.2582 25.0658 21.0027 24.9743 20.7302C24.8732 20.4295 24.6724 20.1964 24.4815 19.9667C24.1594 19.5791 23.7698 19.2493 23.3122 19.0304C22.9447 18.8547 22.5935 18.6099 22.1549 18.629C22.1279 18.6302 22.1005 18.6096 22.0724 18.6028C21.8761 18.555 21.68 18.4688 21.4831 18.4672C20.0516 18.4555 18.6198 18.4605 17.1882 18.4616C16.948 18.4618 16.889 18.5252 16.889 18.767V22.4635ZM14.5938 22.4758C14.5938 20.5151 14.5959 18.5545 14.5894 16.5937C14.589 16.442 14.6521 16.3785 14.7767 16.3481C14.8382 16.333 14.9045 16.3333 14.9685 16.3333C17.1934 16.3323 19.4182 16.3298 21.6431 16.3367C21.8003 16.3371 21.9568 16.4099 22.1144 16.4456C22.2104 16.4672 22.3078 16.4967 22.4047 16.4972C22.6595 16.4985 22.896 16.5439 23.1299 16.6585C23.3241 16.7536 23.5471 16.7874 23.7524 16.8619C23.9261 16.925 24.1033 16.9899 24.2606 17.0845C24.6544 17.3214 25.0498 17.5589 25.4209 17.8287C25.6607 18.0033 25.8633 18.2308 26.0742 18.4428C26.4588 18.8292 26.7448 19.2901 27.0169 19.7563C27.1311 19.9519 27.1839 20.1832 27.2651 20.398C27.2752 20.425 27.2823 20.4679 27.301 20.4745C27.4762 20.5363 27.4271 20.6851 27.4431 20.8125C27.4552 20.9088 27.4881 21.0023 27.5096 21.0974C27.5479 21.2668 27.6133 21.436 27.6171 21.6063C27.6304 22.1989 27.6259 22.7919 27.6189 23.3847C27.6175 23.498 27.5747 23.6109 27.5502 23.7239C27.5136 23.893 27.476 24.062 27.4395 24.2312C27.4347 24.254 27.4405 24.2806 27.4311 24.3006C27.3432 24.4893 27.2561 24.6786 27.1623 24.8643C27.0901 25.0071 27.0016 25.1417 26.9325 25.2858C26.7711 25.6225 26.5744 25.9289 26.3002 26.1905C26.0674 26.4124 25.8907 26.6975 25.6444 26.8999C25.2501 27.2236 24.8629 27.5654 24.3844 27.7735C24.1909 27.8575 24.0145 27.9825 23.8187 28.0593C23.5783 28.1535 23.3259 28.2169 23.0783 28.2929C23.0505 28.3014 23.0129 28.296 22.994 28.3129C22.7781 28.5043 22.5132 28.4565 22.2589 28.4788C21.9345 28.507 21.6128 28.5633 21.2897 28.6064C21.186 28.6203 21.0818 28.6405 20.9777 28.6407C18.9467 28.643 16.9155 28.643 14.8844 28.6429C14.6418 28.6428 14.5942 28.5925 14.5943 28.3577C14.5948 26.3971 14.5946 24.4364 14.5946 22.4758H14.5938Z" fill="#1B23D9"/>
<path id="Vector_4" d="M43.1178 16.3207C44.2977 16.3207 45.4776 16.3206 46.6576 16.3208C46.9163 16.3208 46.9231 16.3281 46.9231 16.5873C46.9232 17.1214 46.9231 17.6557 46.9233 18.1899C46.9235 18.4752 46.9226 18.4761 46.6444 18.476C44.5839 18.4752 42.5234 18.4715 40.4629 18.4771C40.143 18.478 39.8183 18.4957 39.5047 18.5534C39.2185 18.606 38.9414 18.7159 38.6651 18.8137C37.9451 19.0682 37.3393 19.4887 36.875 20.0977C36.673 20.3626 36.5121 20.6519 36.3593 20.9527C36.0239 21.6126 35.9837 22.3031 36.0444 23.0096C36.0675 23.278 36.1357 23.5566 36.2483 23.8005C36.5459 24.4456 36.9296 25.035 37.5189 25.4628C37.696 25.5914 37.8575 25.746 38.0466 25.8526C38.2609 25.9735 38.5111 26.0321 38.7224 26.1572C38.9938 26.3178 39.2948 26.291 39.579 26.3597C39.9401 26.4471 40.2979 26.4968 40.6675 26.4962C42.6575 26.4934 44.6475 26.494 46.6376 26.4936C46.9235 26.4935 46.9234 26.4939 46.9235 26.774C46.9236 27.3317 46.9202 27.8895 46.9267 28.4471C46.9283 28.5959 46.8829 28.6581 46.7268 28.6575C44.4902 28.6511 42.2538 28.6505 40.0172 28.6414C39.8447 28.6407 39.6724 28.5858 39.4998 28.5582C39.3276 28.5308 39.1556 28.4924 38.9822 28.4839C38.7807 28.474 38.5873 28.4627 38.416 28.3365C38.3735 28.3052 38.3031 28.3145 38.2482 28.297C38.1406 28.2629 38.0344 28.2245 37.9288 28.1848C37.9024 28.1748 37.8814 28.1408 37.8561 28.1387C37.5274 28.1106 37.2589 27.9362 36.9884 27.7745C36.7076 27.6067 36.4322 27.4286 36.1648 27.2402C35.7211 26.9273 35.3356 26.5464 34.9953 26.1271C34.7969 25.8824 34.6505 25.5953 34.4833 25.3256C34.4182 25.2204 34.3532 25.114 34.3003 25.0023C34.1915 24.7729 34.0895 24.5403 33.9876 24.3077C33.9529 24.2285 33.9003 24.145 33.9019 24.0643C33.9072 23.8055 33.8253 23.5719 33.7413 23.3343C33.7092 23.2432 33.7074 23.1384 33.7065 23.0396C33.7035 22.664 33.6915 22.2875 33.7132 21.9129C33.7251 21.7078 33.8004 21.5068 33.8418 21.3027C33.865 21.1885 33.8682 21.0698 33.8968 20.957C33.9275 20.8358 33.9751 20.7185 34.0197 20.601C34.0423 20.5413 34.0786 20.4867 34.1014 20.4271C34.1733 20.2393 34.2177 20.0365 34.3165 19.8646C34.5165 19.5163 34.7353 19.1776 34.9661 18.8487C35.1054 18.6502 35.2688 18.4641 35.4446 18.2967C35.6833 18.0695 35.9338 17.8517 36.1984 17.6557C36.4807 17.4466 36.7813 17.261 37.0821 17.0785C37.2123 16.9994 37.3607 16.9473 37.5048 16.8943C37.724 16.8136 37.9701 16.7801 38.1632 16.6598C38.5443 16.4226 39.0101 16.573 39.3895 16.3488C39.4704 16.3009 39.5962 16.3229 39.7013 16.3228C40.8401 16.3214 41.979 16.322 43.1178 16.322V16.3207Z" fill="#0A0561"/>
<path id="Vector_5" d="M31.9289 18.8882C31.9667 18.5692 31.6869 18.1878 31.4127 18.0208C31.1415 17.8557 30.8393 17.8216 30.5105 17.8928C30.262 17.9463 30.1024 18.0792 29.9285 18.2405C29.7325 18.4224 29.6942 18.6706 29.6837 18.8841C29.6736 19.0891 29.7814 19.3332 29.9105 19.5051C30.2294 19.9295 30.7663 20.0262 31.2557 19.8213C31.6795 19.6438 31.8686 19.3158 31.9289 18.8882ZM33.261 18.8965C33.3235 19.303 33.1183 19.6408 32.9458 19.9979C32.7037 20.4989 32.28 20.7904 31.8045 20.991C31.3025 21.2028 30.7604 21.2921 30.2157 21.1389C29.4339 20.919 28.8033 20.4863 28.4927 19.7142C28.3571 19.377 28.2541 19.0035 28.329 18.6218C28.4608 17.9501 28.7597 17.3847 29.3689 17.0222C29.5268 16.9282 29.6836 16.8328 29.8412 16.7385C29.8662 16.7235 29.8922 16.7007 29.9189 16.6988C30.2958 16.6718 30.6574 16.5091 31.045 16.5748C31.8189 16.7062 32.4875 17.0073 32.9138 17.711C33.1328 18.0723 33.3141 18.4433 33.261 18.8965Z" fill="#FA0101"/>
<path id="Vector_6" d="M31.9161 25.4647C31.9161 26.4275 31.9167 27.3903 31.9155 28.3531C31.9153 28.583 31.9041 28.5906 31.6772 28.5903C31.0959 28.5899 30.5149 28.5884 29.9337 28.5908C29.6821 28.5917 29.6586 28.5748 29.6585 28.3067C29.6572 26.5043 29.6575 24.702 29.6572 22.8996C29.6572 22.7646 29.6509 22.6294 29.6563 22.4946C29.6624 22.3445 29.7443 22.2848 29.8763 22.3523C30.3831 22.6111 30.9215 22.4777 31.4475 22.4852C31.5357 22.4865 31.6243 22.4056 31.7143 22.3661C31.8534 22.305 31.9131 22.3378 31.9163 22.4881C31.9214 22.7287 31.9169 22.9695 31.9169 23.2103C31.9168 23.9617 31.9168 24.7133 31.9168 25.4647H31.9161Z" fill="#1B23D9"/>
<path id="Vector_7" d="M45.4337 32.6392C45.7764 32.6392 46.1039 32.6532 46.4292 32.6339C46.6217 32.6226 46.7313 32.464 46.7373 32.2655C46.7429 32.0754 46.6477 31.9034 46.4646 31.8896C46.1244 31.8638 45.7808 31.8822 45.4337 31.8822V32.6392ZM45.4268 33.206V34.5172H44.7946V31.33C45.0368 31.33 45.2757 31.3265 45.5143 31.3307C45.8835 31.3373 46.2542 31.3311 46.6213 31.3635C47.0968 31.4052 47.3592 31.6931 47.3969 32.1647C47.4313 32.5969 47.1968 32.9334 46.769 33.0654C46.7154 33.0818 46.6619 33.0986 46.5849 33.1225C47.1032 33.4779 47.3124 34.0327 47.6605 34.5303C47.4008 34.5303 47.1794 34.5367 46.9591 34.5254C46.9095 34.5228 46.8501 34.4674 46.8175 34.4208C46.606 34.1179 46.3943 33.8148 46.195 33.5039C46.0141 33.2215 45.7569 33.1605 45.4268 33.206Z" fill="#010066"/>
<path id="Vector_8" d="M70.1383 32.3934C70.1374 32.0704 69.937 31.8421 69.6657 31.8551C69.4119 31.8673 69.2713 32.0736 69.2896 32.4072C69.2899 32.4131 69.2898 32.4189 69.2904 32.4248C69.3126 32.715 69.488 32.8909 69.7425 32.8785C69.9887 32.8667 70.139 32.6823 70.1383 32.3934ZM68.7639 33.7567C68.9623 33.7339 69.1467 33.7128 69.2969 33.6956C69.3847 33.812 69.4382 33.9324 69.5307 33.9951C69.7127 34.1186 69.9727 34.0201 70.0632 33.7875C70.1356 33.601 70.1624 33.3967 70.1899 33.1873C69.9583 33.361 69.7191 33.4462 69.4414 33.3869C68.9213 33.2759 68.6039 32.757 68.7043 32.1811C68.7862 31.7103 69.1053 31.3987 69.5683 31.3369C70.037 31.2745 70.469 31.5071 70.658 31.9379C70.8298 32.3292 70.8506 32.7467 70.816 33.164C70.7968 33.3956 70.7601 33.6325 70.6852 33.8513C70.5142 34.3508 70.0445 34.6241 69.5215 34.5605C69.0992 34.5091 68.8471 34.2485 68.7639 33.7567Z" fill="#010066"/>
<path id="Vector_9" d="M65.31 33.5366C65.3086 33.2214 65.1593 33.0299 64.905 33.0173C64.6446 33.0044 64.4664 33.1864 64.4593 33.4721C64.4514 33.7999 64.635 34.035 64.9038 34.041C65.1633 34.0468 65.3113 33.8628 65.31 33.5366ZM65.8327 32.1406C65.6402 32.1628 65.461 32.1833 65.2769 32.2045C65.2643 32.1795 65.2496 32.1607 65.245 32.1397C65.2098 31.9793 65.1178 31.8765 64.9507 31.8575C64.7737 31.8375 64.6236 31.9131 64.5594 32.0682C64.4784 32.2636 64.4415 32.4772 64.3856 32.683C64.4365 32.6967 64.4518 32.7052 64.4563 32.7013C64.7357 32.4581 65.0474 32.4255 65.3717 32.5853C65.7112 32.7526 65.8817 33.0446 65.9028 33.4175C65.9382 34.0414 65.6129 34.469 65.0478 34.5563C64.4881 34.6429 64.0097 34.3154 63.8617 33.7259C63.7311 33.205 63.7323 32.6776 63.8732 32.1597C64.0396 31.5481 64.5905 31.2199 65.1821 31.3584C65.5461 31.4435 65.7925 31.7318 65.8327 32.1406Z" fill="#010066"/>
<path id="Vector_10" d="M57.3422 32.5614C57.5702 32.5593 57.7222 32.4119 57.7237 32.191C57.7253 31.9715 57.5715 31.8211 57.3442 31.8197C57.1072 31.8181 56.9532 31.9691 56.9569 32.1993C56.9606 32.423 57.1102 32.5635 57.3422 32.5614ZM57.3439 33.0524C57.0801 33.0518 56.894 33.261 56.8959 33.5557C56.8978 33.858 57.0887 34.0756 57.3525 34.0764C57.6193 34.0771 57.7994 33.8647 57.7975 33.5515C57.7958 33.2575 57.6097 33.0529 57.3439 33.0524ZM57.8788 32.7852C58.3554 33.0951 58.496 33.4322 58.3533 33.9013C58.229 34.3099 57.8606 34.5619 57.382 34.5657C56.8699 34.5699 56.4689 34.3187 56.3425 33.9147C56.2 33.459 56.3465 33.0954 56.8045 32.7884C56.5909 32.6688 56.4278 32.5145 56.3905 32.2607C56.33 31.8481 56.5563 31.4751 56.9667 31.3822C57.1671 31.3369 57.3871 31.3319 57.5913 31.3596C57.9767 31.4119 58.2207 31.6468 58.2812 31.9863C58.3441 32.3397 58.2065 32.6035 57.8788 32.7852Z" fill="#010066"/>
<path id="Vector_11" d="M50.6533 33.513C50.4425 34.2363 49.9711 34.5647 49.2243 34.529C48.561 34.4973 48.0282 34.0264 47.9111 33.3628C47.8396 32.9571 47.8538 32.5554 48.0071 32.1681C48.3283 31.3564 49.4065 31.0229 50.1357 31.5061C50.4094 31.6876 50.5623 31.9483 50.6437 32.2746C50.4373 32.31 50.2363 32.3444 50.0285 32.38C50.0132 32.3499 49.998 32.326 49.9881 32.3C49.8774 32.009 49.6618 31.8626 49.3555 31.856C49.0338 31.849 48.7722 31.9766 48.6482 32.2804C48.4751 32.7046 48.4816 33.1447 48.6586 33.5659C48.7766 33.8465 49.0229 33.9701 49.3247 33.9698C49.6116 33.9696 49.8149 33.8294 49.9397 33.5755C49.9805 33.4923 50.0082 33.4027 50.0455 33.3069C50.2474 33.3754 50.4456 33.4425 50.6533 33.513Z" fill="#010066"/>
<path id="Vector_12" d="M61.895 32.9864C61.9184 33.2059 61.9303 33.47 61.9788 33.7271C62.0196 33.9432 62.142 34.038 62.3029 34.0406C62.4721 34.0434 62.5798 33.9427 62.642 33.721C62.6545 33.6761 62.6678 33.6299 62.6692 33.5839C62.6798 33.2216 62.6979 32.859 62.6912 32.497C62.6884 32.3488 62.6398 32.1987 62.5944 32.055C62.5538 31.9262 62.4497 31.8581 62.3129 31.8561C62.1683 31.854 62.0683 31.9283 62.014 32.0593C61.9874 32.1234 61.9637 32.192 61.9566 32.2605C61.9329 32.487 61.9173 32.7145 61.895 32.9864ZM63.384 32.9555C63.3224 33.2839 63.291 33.6195 63.1928 33.9344C63.0561 34.3717 62.7316 34.5731 62.2839 34.5655C61.8666 34.5584 61.525 34.3235 61.4014 33.9099C61.2107 33.2715 61.2084 32.6227 61.4079 31.9856C61.545 31.5482 61.8673 31.3305 62.3043 31.3301C62.7453 31.3296 63.0677 31.5403 63.2011 31.9809C63.2949 32.2912 63.3238 32.6212 63.384 32.9555Z" fill="#010066"/>
<path id="Vector_13" d="M66.8608 33.0076C66.8857 33.2209 66.8998 33.4846 66.9514 33.7409C66.9947 33.9552 67.1211 34.0486 67.2846 34.0399C67.4729 34.03 67.5598 33.9066 67.6031 33.7404C67.6164 33.6897 67.6338 33.6381 67.6354 33.5866C67.6467 33.2242 67.6654 32.8617 67.6578 32.4997C67.6545 32.3459 67.6182 32.1807 67.5493 32.0449C67.5056 31.9587 67.3814 31.8865 67.2805 31.8629C67.1516 31.8327 67.0449 31.9174 66.9903 32.0417C66.9601 32.1105 66.9319 32.1842 66.924 32.2581C66.899 32.4903 66.8839 32.7237 66.8608 33.0076ZM68.3516 32.9516C68.2884 33.2844 68.2556 33.6258 68.1548 33.9457C68.02 34.3736 67.6966 34.5714 67.256 34.5656C66.8376 34.5601 66.494 34.3269 66.3697 33.9153C66.1751 33.2711 66.1742 32.6164 66.3788 31.9744C66.5157 31.5455 66.836 31.332 67.2656 31.3301C67.7084 31.3283 68.0308 31.5363 68.1654 31.9761C68.2604 32.2861 68.2901 32.6159 68.3516 32.9516Z" fill="#010066"/>
<path id="Vector_14" d="M55.1881 31.9998H53.8175V31.3735H55.8873C55.9074 31.6066 55.9109 31.8053 55.7367 32.0182C55.2084 32.6636 54.9242 33.4216 54.8394 34.2524C54.8305 34.3395 54.8238 34.427 54.8154 34.5224H54.2399C54.2708 33.5799 54.6222 32.7643 55.1881 31.9998Z" fill="#010066"/>
<path id="Vector_15" d="M60.3598 34.5231H59.764V32.2912C59.5008 32.4626 59.2551 32.6225 58.9772 32.8033V32.1905C59.2124 32.0181 59.4291 31.8607 59.6436 31.7005C59.6758 31.6765 59.7013 31.6416 59.7245 31.608C59.7868 31.5179 59.8287 31.3739 59.9107 31.3463C60.0422 31.3021 60.1996 31.3344 60.3598 31.3344V34.5231Z" fill="#010066"/>
<path id="Vector_16" d="M51.9446 32.2251H51.3555V32.8296H51.9446V32.2251Z" fill="#010066"/>
<path id="Vector_17" d="M51.9422 33.9119H51.3513V34.5205H51.9422V33.9119Z" fill="black"/>
<path id="Vector_18" d="M18.1299 0H10.5684V6.99836H18.1299V0Z" fill="#FE0000"/>
<path id="Vector_19" d="M48.3739 7.01636H40.8123V14.0147H48.3739V7.01636Z" fill="#FE0000"/>
<path id="Vector_20" d="M25.6427 7.01636H18.0812V14.0147H25.6427V7.01636Z" fill="#0000FE"/>
<path id="Vector_21" d="M33.2508 0H25.6893V6.99836H33.2508V0Z" fill="#FE0000"/>
<path id="Vector_22" d="M40.8123 0H33.2508V6.99836H40.8123V0Z" fill="#0000FE"/>
</g>
<defs>
<clipPath id="clip0_330_1524">
<rect width="86" height="42.1152" fill="white"/>
</clipPath>
</defs>
</svg>
