<svg width="48" height="48" viewBox="0 0 48 48" fill="none" xmlns="http://www.w3.org/2000/svg">
<g clip-path="url(#clip0_2073_386)">
<g clip-path="url(#clip1_2073_386)">
<g clip-path="url(#clip2_2073_386)">
<path d="M18.5181 33.75C16.8613 33.75 15.5181 32.4068 15.5181 30.75V27.75C15.5181 26.0932 16.8613 24.75 18.5181 24.75V33.75Z" fill="#6FA4D8"/>
</g>
<g clip-path="url(#clip3_2073_386)">
<path d="M30.5181 33.75C32.1748 33.75 33.5181 32.4068 33.5181 30.75V27.75C33.5181 26.0932 32.1748 24.75 30.5181 24.75V33.75Z" fill="#5C76B2"/>
</g>
<g clip-path="url(#clip4_2073_386)">
<path d="M30.5181 11.25H18.5181C16.8613 11.25 15.5181 12.5932 15.5181 14.25V21.75C15.5181 23.4068 16.8613 24.75 18.5181 24.75V33.75C18.5181 36.2355 20.5326 38.25 23.0181 38.25H26.0181C28.5036 38.25 30.5181 36.2355 30.5181 33.75V24.75C32.1748 24.75 33.5181 23.4068 33.5181 21.75V14.25C33.5181 12.5932 32.1748 11.25 30.5181 11.25Z" fill="#F68820"/>
</g>
<g clip-path="url(#clip5_2073_386)">
<path d="M21.5181 11.25H14.0181C13.1893 11.25 12.5181 10.5788 12.5181 9.75V9C12.5181 8.586 12.1821 8.25 11.7681 8.25C11.3541 8.25 11.0181 8.586 11.0181 9V11.25C11.0181 12.9068 12.3613 14.25 14.0181 14.25H20.0181C22.5036 14.25 24.5181 16.2645 24.5181 18.75V14.25C24.5181 12.5932 23.1748 11.25 21.5181 11.25V11.25Z" fill="#6FA4D8"/>
</g>
<g clip-path="url(#clip6_2073_386)">
<path d="M27.5181 11.25H35.0181C35.8468 11.25 36.5181 10.5788 36.5181 9.75V9C36.5181 8.586 36.8541 8.25 37.2681 8.25C37.6821 8.25 38.0181 8.586 38.0181 9V11.25C38.0181 12.9068 36.6748 14.25 35.0181 14.25H29.0181C26.5326 14.25 24.5181 16.2645 24.5181 18.75V14.25C24.5181 12.5932 25.8613 11.25 27.5181 11.25Z" fill="#5C76B2"/>
</g>
<g clip-path="url(#clip7_2073_386)">
<g clip-path="url(#clip8_2073_386)">
<path d="M36.5181 44.25V47.25H11.0181V44.25H36.5181Z" fill="#F68820"/>
</g>
<g clip-path="url(#clip9_2073_386)">
<path d="M36.5181 38.25V41.25H11.0181V38.25H36.5181Z" fill="#FBD301"/>
</g>
<g clip-path="url(#clip10_2073_386)">
<path d="M11.0181 41.25H36.5181V44.25H11.0181V41.25Z" fill="#FBBE18"/>
</g>
<g clip-path="url(#clip11_2073_386)">
<path d="M11.018 38.25L2.68852 42.4148C2.41177 42.5528 2.41177 42.9472 2.68852 43.0852L11.018 47.25V38.25Z" fill="#DB9E68"/>
</g>
<g clip-path="url(#clip12_2073_386)">
<path d="M11.0184 38.25L2.68893 42.4148C2.55093 42.4838 2.48193 42.6165 2.48193 42.75H11.0184V38.25Z" fill="#EEC78E"/>
</g>
<g clip-path="url(#clip13_2073_386)">
<path d="M3.51802 42L2.68852 42.4148C2.41177 42.5528 2.41177 42.9472 2.68852 43.0852L3.51802 43.5V42Z" fill="#353744"/>
</g>
<g clip-path="url(#clip14_2073_386)">
<path d="M39.5181 38.25V47.25H36.5181V38.25H39.5181Z" fill="#B3B4B6"/>
</g>
<g clip-path="url(#clip15_2073_386)">
<path d="M39.5181 38.25V42.75H36.5181V38.25H39.5181Z" fill="#DBDEE3"/>
</g>
<g clip-path="url(#clip16_2073_386)">
<path d="M45.5181 45V40.5C45.5181 39.2573 44.5108 38.25 43.2681 38.25H39.5181V47.25H42.5181H43.2681C44.5108 47.25 45.5181 46.2428 45.5181 45Z" fill="#353744"/>
</g>
<g clip-path="url(#clip17_2073_386)">
<path d="M45.5181 42.75V40.5C45.5181 39.2573 44.5108 38.25 43.2681 38.25H39.5181V42.75H45.5181Z" fill="#55525B"/>
</g>
</g>
<g clip-path="url(#clip18_2073_386)">
<path d="M41.0181 5.25H8.01807C7.18932 5.25 6.51807 4.57875 6.51807 3.75C6.51807 2.92125 7.18932 2.25 8.01807 2.25H41.0181C41.8468 2.25 42.5181 2.92125 42.5181 3.75C42.5181 4.57875 41.8468 5.25 41.0181 5.25Z" fill="#353744"/>
</g>
<g clip-path="url(#clip19_2073_386)">
<path d="M26.0181 3.75C26.0181 2.92125 25.3468 2.25 24.5181 2.25H8.01807C7.18932 2.25 6.51807 2.92125 6.51807 3.75C6.51807 4.578 7.18932 5.25 8.01807 5.25H24.5181C25.3468 5.25 26.0181 4.578 26.0181 3.75Z" fill="#55525B"/>
</g>
<g clip-path="url(#clip20_2073_386)">
<path d="M33.8931 11.25H15.1431C14.7291 11.25 14.3931 10.914 14.3931 10.5V5.25H34.6431V10.5C34.6431 10.914 34.3071 11.25 33.8931 11.25Z" fill="#353744"/>
</g>
<g clip-path="url(#clip21_2073_386)">
<path d="M24.5181 11.25H15.1431C14.7291 11.25 14.3931 10.914 14.3931 10.5V8.25H23.0181C23.8468 8.25 24.5181 8.92125 24.5181 9.75V11.25Z" fill="#55525B"/>
</g>
<g clip-path="url(#clip22_2073_386)">
<path d="M38.0181 2.25H39.5181V11.25H38.0181V2.25Z" fill="#F68820"/>
</g>
<g clip-path="url(#clip23_2073_386)">
<path d="M23.0181 2.25H39.5181C39.5181 1.42125 38.8468 0.75 38.0181 0.75H24.5181C23.6893 0.75 23.0181 1.42125 23.0181 2.25V2.25Z" fill="#FBBE18"/>
</g>
<g clip-path="url(#clip24_2073_386)">
<path d="M38.7681 12.75C39.5965 12.75 40.2681 12.0784 40.2681 11.25C40.2681 10.4216 39.5965 9.75 38.7681 9.75C37.9396 9.75 37.2681 10.4216 37.2681 11.25C37.2681 12.0784 37.9396 12.75 38.7681 12.75Z" fill="#FBBE18"/>
</g>
<g clip-path="url(#clip25_2073_386)">
<path d="M37.2681 11.25H40.2681V12.75H37.2681V11.25Z" fill="#B3B4B6"/>
</g>
<g clip-path="url(#clip26_2073_386)">
<path d="M37.2681 11.25H38.7681V12.75H37.2681V11.25Z" fill="#DBDEE3"/>
</g>
<g clip-path="url(#clip27_2073_386)">
<path d="M38.7681 18.75H37.2681C36.8541 18.75 36.5181 18.414 36.5181 18V13.5C36.5181 13.086 36.8541 12.75 37.2681 12.75H38.7681V18.75Z" fill="#FBBE18"/>
</g>
<g clip-path="url(#clip28_2073_386)">
<path d="M38.7681 18.75H40.2681C40.6821 18.75 41.0181 18.414 41.0181 18V13.5C41.0181 13.086 40.6821 12.75 40.2681 12.75H38.7681V18.75Z" fill="#F68820"/>
</g>
<g clip-path="url(#clip29_2073_386)">
<path d="M38.0181 18.75V13.875C38.0181 13.668 37.8501 13.5 37.6431 13.5C37.4361 13.5 37.2681 13.668 37.2681 13.875V18.75H38.0181Z" fill="#F68820"/>
</g>
<g clip-path="url(#clip30_2073_386)">
<path d="M40.2681 18.75V16.125C40.2681 15.918 40.1001 15.75 39.8931 15.75C39.6861 15.75 39.5181 15.918 39.5181 16.125V18.75H40.2681Z" fill="#FBBE18"/>
</g>
<g clip-path="url(#clip31_2073_386)">
<path d="M20.0181 23.25C22.5034 23.25 24.5181 21.2353 24.5181 18.75C24.5181 16.2647 22.5034 14.25 20.0181 14.25C17.5328 14.25 15.5181 16.2647 15.5181 18.75C15.5181 21.2353 17.5328 23.25 20.0181 23.25Z" fill="#DBDEE3"/>
</g>
<g clip-path="url(#clip32_2073_386)">
<path d="M20.0181 23.25C22.5034 23.25 24.5181 21.2353 24.5181 18.75C24.5181 16.2647 22.5034 14.25 20.0181 14.25C17.5328 14.25 15.5181 16.2647 15.5181 18.75C15.5181 21.2353 17.5328 23.25 20.0181 23.25Z" fill="#DBDEE3"/>
</g>
<g clip-path="url(#clip33_2073_386)">
<path d="M20.0181 20.25C20.8465 20.25 21.5181 19.5784 21.5181 18.75C21.5181 17.9216 20.8465 17.25 20.0181 17.25C19.1896 17.25 18.5181 17.9216 18.5181 18.75C18.5181 19.5784 19.1896 20.25 20.0181 20.25Z" fill="#55525B"/>
</g>
<g clip-path="url(#clip34_2073_386)">
<path d="M29.0181 23.25C31.5033 23.25 33.5181 21.2353 33.5181 18.75C33.5181 16.2647 31.5033 14.25 29.0181 14.25C26.5328 14.25 24.5181 16.2647 24.5181 18.75C24.5181 21.2353 26.5328 23.25 29.0181 23.25Z" fill="#DBDEE3"/>
</g>
<g clip-path="url(#clip35_2073_386)">
<path d="M29.0181 20.25C29.8465 20.25 30.5181 19.5784 30.5181 18.75C30.5181 17.9216 29.8465 17.25 29.0181 17.25C28.1896 17.25 27.5181 17.9216 27.5181 18.75C27.5181 19.5784 28.1896 20.25 29.0181 20.25Z" fill="#55525B"/>
</g>
<g clip-path="url(#clip36_2073_386)">
<path d="M24.5179 18.75C25.4479 18.75 26.1109 19.6523 25.8334 20.5395L25.2334 22.4588C25.0144 23.1608 24.0206 23.1608 23.8016 22.4588L23.2016 20.5395C22.9249 19.6523 23.5879 18.75 24.5179 18.75Z" fill="#55525B"/>
</g>
<g clip-path="url(#clip37_2073_386)">
<path d="M22.2681 26.25C21.4393 26.25 20.7681 25.5788 20.7681 24.75H23.7681C23.7681 25.5788 23.0968 26.25 22.2681 26.25Z" fill="#FBBE18"/>
</g>
<g clip-path="url(#clip38_2073_386)">
<path d="M26.7681 26.25C25.9393 26.25 25.2681 25.5788 25.2681 24.75H28.2681C28.2681 25.5788 27.5968 26.25 26.7681 26.25Z" fill="#FBBE18"/>
</g>
<g clip-path="url(#clip39_2073_386)">
<path d="M22.2681 32.25C21.4393 32.25 20.7681 31.5788 20.7681 30.75H23.7681C23.7681 31.5788 23.0968 32.25 22.2681 32.25Z" fill="#FBBE18"/>
</g>
<g clip-path="url(#clip40_2073_386)">
<path d="M26.7681 32.25C25.9393 32.25 25.2681 31.5788 25.2681 30.75H28.2681C28.2681 31.5788 27.5968 32.25 26.7681 32.25Z" fill="#FBBE18"/>
</g>
<g clip-path="url(#clip41_2073_386)">
<path d="M24.5181 29.25C23.6893 29.25 23.0181 28.5788 23.0181 27.75H26.0181C26.0181 28.5788 25.3468 29.25 24.5181 29.25Z" fill="#FBBE18"/>
</g>
<g clip-path="url(#clip42_2073_386)">
<path d="M24.5181 35.25C23.6893 35.25 23.0181 34.5788 23.0181 33.75H26.0181C26.0181 34.5788 25.3468 35.25 24.5181 35.25Z" fill="#FBBE18"/>
</g>
<g clip-path="url(#clip43_2073_386)">
<path d="M19.6431 39.75C20.0571 39.75 20.3931 39.414 20.3931 39V37.5C20.3931 37.086 20.0571 36.75 19.6431 36.75C19.2291 36.75 18.8931 37.086 18.8931 37.5V39C18.8931 39.414 19.2291 39.75 19.6431 39.75Z" fill="#6FA4D8"/>
</g>
<g clip-path="url(#clip44_2073_386)">
<path d="M21.1431 39.75C21.5571 39.75 21.8931 39.414 21.8931 39V37.5C21.8931 37.086 21.5571 36.75 21.1431 36.75C20.7291 36.75 20.3931 37.086 20.3931 37.5V39C20.3931 39.414 20.7291 39.75 21.1431 39.75Z" fill="#6FA4D8"/>
</g>
<g clip-path="url(#clip45_2073_386)">
<path d="M22.6431 39.75C23.0571 39.75 23.3931 39.414 23.3931 39V37.5C23.3931 37.086 23.0571 36.75 22.6431 36.75C22.2291 36.75 21.8931 37.086 21.8931 37.5V39C21.8931 39.414 22.2291 39.75 22.6431 39.75Z" fill="#6FA4D8"/>
</g>
<g clip-path="url(#clip46_2073_386)">
<path d="M26.3931 39.75C26.8071 39.75 27.1431 39.414 27.1431 39V37.5C27.1431 37.086 26.8071 36.75 26.3931 36.75C25.9791 36.75 25.6431 37.086 25.6431 37.5V39C25.6431 39.414 25.9791 39.75 26.3931 39.75Z" fill="#6FA4D8"/>
</g>
<g clip-path="url(#clip47_2073_386)">
<path d="M27.8931 39.75C28.3071 39.75 28.6431 39.414 28.6431 39V37.5C28.6431 37.086 28.3071 36.75 27.8931 36.75C27.4791 36.75 27.1431 37.086 27.1431 37.5V39C27.1431 39.414 27.4791 39.75 27.8931 39.75Z" fill="#6FA4D8"/>
</g>
<g clip-path="url(#clip48_2073_386)">
<path d="M29.3931 39.75C29.8071 39.75 30.1431 39.414 30.1431 39V37.5C30.1431 37.086 29.8071 36.75 29.3931 36.75C28.9791 36.75 28.6431 37.086 28.6431 37.5V39C28.6431 39.414 28.9791 39.75 29.3931 39.75Z" fill="#6FA4D8"/>
</g>
</g>
</g>
<defs>
<clipPath id="clip0_2073_386">
<rect width="48" height="48" fill="white"/>
</clipPath>
<clipPath id="clip1_2073_386">
<rect width="43.0371" height="46.5" fill="white" transform="translate(2.48096 0.75)"/>
</clipPath>
<clipPath id="clip2_2073_386">
<rect width="3" height="9" fill="white" transform="translate(15.5181 24.75)"/>
</clipPath>
<clipPath id="clip3_2073_386">
<rect width="3" height="9" fill="white" transform="translate(30.5181 24.75)"/>
</clipPath>
<clipPath id="clip4_2073_386">
<rect width="18" height="27" fill="white" transform="translate(15.5181 11.25)"/>
</clipPath>
<clipPath id="clip5_2073_386">
<rect width="13.5" height="10.5" fill="white" transform="translate(11.0181 8.25)"/>
</clipPath>
<clipPath id="clip6_2073_386">
<rect width="13.5" height="10.5" fill="white" transform="translate(24.5181 8.25)"/>
</clipPath>
<clipPath id="clip7_2073_386">
<rect width="43.0371" height="9.00001" fill="white" transform="translate(2.48096 38.25)"/>
</clipPath>
<clipPath id="clip8_2073_386">
<rect width="25.5" height="3.00001" fill="white" transform="translate(11.0181 44.25)"/>
</clipPath>
<clipPath id="clip9_2073_386">
<rect width="25.5" height="3.00001" fill="white" transform="translate(11.0181 38.25)"/>
</clipPath>
<clipPath id="clip10_2073_386">
<rect width="25.5" height="3" fill="white" transform="translate(11.0181 41.25)"/>
</clipPath>
<clipPath id="clip11_2073_386">
<rect width="8.53706" height="9" fill="white" transform="translate(2.48096 38.25)"/>
</clipPath>
<clipPath id="clip12_2073_386">
<rect width="8.5365" height="4.5" fill="white" transform="translate(2.48193 38.25)"/>
</clipPath>
<clipPath id="clip13_2073_386">
<rect width="1.03706" height="1.5" fill="white" transform="translate(2.48096 42)"/>
</clipPath>
<clipPath id="clip14_2073_386">
<rect width="3" height="9" fill="white" transform="translate(36.5181 38.25)"/>
</clipPath>
<clipPath id="clip15_2073_386">
<rect width="3" height="4.5" fill="white" transform="translate(36.5181 38.25)"/>
</clipPath>
<clipPath id="clip16_2073_386">
<rect width="6" height="9" fill="white" transform="translate(39.5181 38.25)"/>
</clipPath>
<clipPath id="clip17_2073_386">
<rect width="6" height="4.5" fill="white" transform="translate(39.5181 38.25)"/>
</clipPath>
<clipPath id="clip18_2073_386">
<rect width="36" height="3" fill="white" transform="translate(6.51807 2.25)"/>
</clipPath>
<clipPath id="clip19_2073_386">
<rect width="19.5" height="3" fill="white" transform="translate(6.51807 2.25)"/>
</clipPath>
<clipPath id="clip20_2073_386">
<rect width="20.25" height="6" fill="white" transform="translate(14.3931 5.25)"/>
</clipPath>
<clipPath id="clip21_2073_386">
<rect width="10.125" height="3" fill="white" transform="translate(14.3931 8.25)"/>
</clipPath>
<clipPath id="clip22_2073_386">
<rect width="1.5" height="9" fill="white" transform="translate(38.0181 2.25)"/>
</clipPath>
<clipPath id="clip23_2073_386">
<rect width="16.5" height="1.5" fill="white" transform="translate(23.0181 0.75)"/>
</clipPath>
<clipPath id="clip24_2073_386">
<rect width="3" height="3" fill="white" transform="translate(37.2681 9.75)"/>
</clipPath>
<clipPath id="clip25_2073_386">
<rect width="3" height="1.5" fill="white" transform="translate(37.2681 11.25)"/>
</clipPath>
<clipPath id="clip26_2073_386">
<rect width="1.5" height="1.5" fill="white" transform="translate(37.2681 11.25)"/>
</clipPath>
<clipPath id="clip27_2073_386">
<rect width="2.25" height="6" fill="white" transform="translate(36.5181 12.75)"/>
</clipPath>
<clipPath id="clip28_2073_386">
<rect width="2.25" height="6" fill="white" transform="translate(38.7681 12.75)"/>
</clipPath>
<clipPath id="clip29_2073_386">
<rect width="0.75" height="5.25" fill="white" transform="translate(37.2681 13.5)"/>
</clipPath>
<clipPath id="clip30_2073_386">
<rect width="0.749996" height="3" fill="white" transform="translate(39.5181 15.75)"/>
</clipPath>
<clipPath id="clip31_2073_386">
<rect width="9.00001" height="9" fill="white" transform="translate(15.5181 14.25)"/>
</clipPath>
<clipPath id="clip32_2073_386">
<rect width="9.00001" height="9" fill="white" transform="translate(15.5181 14.25)"/>
</clipPath>
<clipPath id="clip33_2073_386">
<rect width="3" height="3" fill="white" transform="translate(18.5181 17.25)"/>
</clipPath>
<clipPath id="clip34_2073_386">
<rect width="9" height="9" fill="white" transform="translate(24.5181 14.25)"/>
</clipPath>
<clipPath id="clip35_2073_386">
<rect width="3" height="3" fill="white" transform="translate(27.5181 17.25)"/>
</clipPath>
<clipPath id="clip36_2073_386">
<rect width="2.75898" height="4.23525" fill="white" transform="translate(23.1382 18.75)"/>
</clipPath>
<clipPath id="clip37_2073_386">
<rect width="3" height="1.5" fill="white" transform="translate(20.7681 24.75)"/>
</clipPath>
<clipPath id="clip38_2073_386">
<rect width="3" height="1.5" fill="white" transform="translate(25.2681 24.75)"/>
</clipPath>
<clipPath id="clip39_2073_386">
<rect width="3" height="1.5" fill="white" transform="translate(20.7681 30.75)"/>
</clipPath>
<clipPath id="clip40_2073_386">
<rect width="3" height="1.5" fill="white" transform="translate(25.2681 30.75)"/>
</clipPath>
<clipPath id="clip41_2073_386">
<rect width="3.00001" height="1.5" fill="white" transform="translate(23.0181 27.75)"/>
</clipPath>
<clipPath id="clip42_2073_386">
<rect width="3.00001" height="1.5" fill="white" transform="translate(23.0181 33.75)"/>
</clipPath>
<clipPath id="clip43_2073_386">
<rect width="1.5" height="3" fill="white" transform="translate(18.8931 36.75)"/>
</clipPath>
<clipPath id="clip44_2073_386">
<rect width="1.5" height="3" fill="white" transform="translate(20.3931 36.75)"/>
</clipPath>
<clipPath id="clip45_2073_386">
<rect width="1.5" height="3" fill="white" transform="translate(21.8931 36.75)"/>
</clipPath>
<clipPath id="clip46_2073_386">
<rect width="1.5" height="3" fill="white" transform="translate(25.6431 36.75)"/>
</clipPath>
<clipPath id="clip47_2073_386">
<rect width="1.5" height="3" fill="white" transform="translate(27.1431 36.75)"/>
</clipPath>
<clipPath id="clip48_2073_386">
<rect width="1.5" height="3" fill="white" transform="translate(28.6431 36.75)"/>
</clipPath>
</defs>
</svg>
