<svg width="75" height="74" viewBox="0 0 75 74" fill="none" xmlns="http://www.w3.org/2000/svg">
<path id="Star 1" d="M29.9238 3.51106C34.1186 -0.647635 40.8814 -0.647635 45.0762 3.51106V3.51106C47.312 5.72766 50.4064 6.85393 53.544 6.59308V6.59308C59.4305 6.10367 64.6112 10.4508 65.1514 16.3328V16.3328C65.4393 19.468 67.0858 22.3198 69.657 24.1368V24.1368C74.4809 27.5457 75.6553 34.2058 72.2882 39.059V39.059C70.4935 41.6457 69.9217 44.8887 70.7234 47.9333V47.9333C72.2275 53.6454 68.8461 59.5022 63.1472 61.0556V61.0556C60.1096 61.8836 57.5871 64.0003 56.2442 66.8479V66.8479C53.7248 72.1905 47.3697 74.5036 42.0056 72.0304V72.0304C39.1465 70.7121 35.8535 70.7121 32.9944 72.0304V72.0304C27.6303 74.5036 21.2752 72.1905 18.7558 66.8479V66.8479C17.4129 64.0003 14.8904 61.8836 11.8528 61.0556V61.0556C6.1539 59.5022 2.77246 53.6454 4.27662 47.9333V47.9333C5.07834 44.8887 4.50652 41.6457 2.71183 39.059V39.059C-0.655267 34.2058 0.519094 27.5457 5.34302 24.1368V24.1368C7.91419 22.3198 9.56069 19.468 9.84863 16.3328V16.3328C10.3888 10.4508 15.5695 6.10367 21.456 6.59308V6.59308C24.5936 6.85393 27.688 5.72766 29.9238 3.51106V3.51106Z" fill="#C9E3C3"/>
</svg>
