<svg width="33" height="34" viewBox="0 0 33 34" fill="none" xmlns="http://www.w3.org/2000/svg">
<g id="vuesax/bulk/teacher">
<g id="teacher">
<path id="Vector" opacity="0.4" d="M25.2725 18.1552V24.9339C25.2725 26.6802 23.9113 28.5501 22.275 29.1002L17.8888 30.5577C17.1188 30.8189 15.8675 30.8189 15.1113 30.5577L10.725 29.1002C9.07504 28.5501 7.72754 26.6802 7.72754 24.9339L7.74129 18.1552L13.8188 22.1152C15.3038 23.0914 17.7513 23.0914 19.2363 22.1152L25.2725 18.1552Z" fill="#52A43E"/>
<path id="Vector_2" d="M27.4723 9.38258L19.2361 3.97883C17.7511 3.00258 15.3036 3.00258 13.8186 3.97883L5.54109 9.38258C2.88734 11.1013 2.88734 14.9926 5.54109 16.7251L7.74109 18.1551L13.8186 22.1151C15.3036 23.0913 17.7511 23.0913 19.2361 22.1151L25.2723 18.1551L27.1561 16.9176V21.1251C27.1561 21.6888 27.6236 22.1563 28.1873 22.1563C28.7511 22.1563 29.2186 21.6888 29.2186 21.1251V14.3601C29.7686 12.5863 29.2048 10.5238 27.4723 9.38258Z" fill="#52A43E"/>
</g>
</g>
</svg>
